<svg width="97" height="19" viewBox="0 0 97 19" fill="none" xmlns="http://www.w3.org/2000/svg">
<path d="M22.0947 4.33593L24.834 12.0703L27.5586 4.33593H30.4443V15H28.2397V12.085L28.4595 7.05321L25.5811 15H24.0723L21.2012 7.06054L21.4209 12.085V15H19.2236V4.33593H22.0947ZM36.6772 9.06005C36.3892 9.02099 36.1353 9.00146 35.9155 9.00146C35.1147 9.00146 34.5898 9.27245 34.3408 9.81444V15H32.2241V7.07519H34.2236L34.2822 8.02001C34.707 7.29247 35.2954 6.9287 36.0474 6.9287C36.2817 6.9287 36.5015 6.96044 36.7065 7.02392L36.6772 9.06005ZM46.2793 13.6523C45.8838 14.126 45.3247 14.4946 44.6021 14.7583C43.8794 15.0171 43.0786 15.1465 42.1997 15.1465C41.2769 15.1465 40.4663 14.9463 39.7681 14.5459C39.0747 14.1406 38.5376 13.5547 38.1567 12.7881C37.7808 12.0215 37.5879 11.1206 37.5781 10.0854V9.36034C37.5781 8.29589 37.7563 7.37548 38.1128 6.59911C38.4741 5.81786 38.9917 5.22216 39.6655 4.812C40.3442 4.39696 41.1377 4.18944 42.0459 4.18944C43.3105 4.18944 44.2993 4.49218 45.0122 5.09765C45.7251 5.69823 46.1475 6.5747 46.2793 7.72704H44.1406C44.043 7.11669 43.8257 6.66991 43.4888 6.38671C43.1567 6.10351 42.6978 5.9619 42.1118 5.9619C41.3647 5.9619 40.7959 6.24267 40.4053 6.80419C40.0146 7.36571 39.8169 8.20067 39.812 9.30907V9.99022C39.812 11.1084 40.0244 11.9531 40.4492 12.5244C40.874 13.0957 41.4966 13.3813 42.3169 13.3813C43.1421 13.3813 43.7305 13.2056 44.082 12.854V11.0156H42.0825V9.39696H46.2793V13.6523ZM51.5747 15.1465C50.4126 15.1465 49.4653 14.79 48.7329 14.0771C48.0054 13.3642 47.6416 12.4145 47.6416 11.228V11.0229C47.6416 10.227 47.7954 9.51659 48.103 8.89159C48.4106 8.26171 48.8452 7.77831 49.4067 7.4414C49.9731 7.0996 50.6177 6.9287 51.3403 6.9287C52.4243 6.9287 53.2764 7.2705 53.8965 7.95409C54.5215 8.63769 54.834 9.60692 54.834 10.8618V11.7261H49.7876C49.856 12.2436 50.061 12.6587 50.4028 12.9712C50.7495 13.2837 51.1865 13.4399 51.7139 13.4399C52.5293 13.4399 53.1665 13.1445 53.6255 12.5537L54.6655 13.7183C54.3481 14.1675 53.9185 14.519 53.3765 14.7729C52.8345 15.022 52.2339 15.1465 51.5747 15.1465ZM51.333 8.64257C50.9131 8.64257 50.5713 8.78417 50.3076 9.06737C50.0488 9.35058 49.8828 9.75585 49.8096 10.2832H52.7539V10.1147C52.7441 9.64599 52.6172 9.28466 52.373 9.03075C52.1289 8.77196 51.7822 8.64257 51.333 8.64257ZM58.0273 7.07519L58.0933 7.96142C58.6548 7.27294 59.4141 6.9287 60.3711 6.9287C61.3916 6.9287 62.0923 7.33153 62.4731 8.1372C63.0298 7.33153 63.8232 6.9287 64.8535 6.9287C65.7129 6.9287 66.3525 7.18017 66.7725 7.6831C67.1924 8.18114 67.4023 8.9331 67.4023 9.93896V15H65.2783V9.94628C65.2783 9.49706 65.1904 9.16991 65.0146 8.96483C64.8389 8.75487 64.5288 8.64989 64.0845 8.64989C63.4497 8.64989 63.0103 8.95263 62.7661 9.5581L62.7734 15H60.6567V9.9536C60.6567 9.49462 60.5664 9.16259 60.3857 8.95751C60.2051 8.75243 59.8975 8.64989 59.4629 8.64989C58.8623 8.64989 58.4277 8.89892 58.1592 9.39696V15H56.0425V7.07519H58.0273ZM71.2695 15H69.1455V7.07519H71.2695V15ZM69.021 5.0244C69.021 4.70702 69.126 4.44579 69.3359 4.24071C69.5508 4.03563 69.8413 3.9331 70.2075 3.9331C70.5688 3.9331 70.8569 4.03563 71.0718 4.24071C71.2866 4.44579 71.394 4.70702 71.394 5.0244C71.394 5.34667 71.2842 5.61034 71.0645 5.81542C70.8496 6.0205 70.564 6.12304 70.2075 6.12304C69.8511 6.12304 69.563 6.0205 69.3433 5.81542C69.1284 5.61034 69.021 5.34667 69.021 5.0244ZM74.9683 7.07519L75.0342 7.99071C75.6006 7.28271 76.3599 6.9287 77.312 6.9287C78.1519 6.9287 78.7769 7.17528 79.187 7.66845C79.5972 8.16161 79.8071 8.89892 79.8169 9.88036V15H77.7002V9.93163C77.7002 9.48241 77.6025 9.15771 77.4072 8.95751C77.2119 8.75243 76.8872 8.64989 76.4331 8.64989C75.8374 8.64989 75.3906 8.9038 75.0928 9.41161V15H72.9761V7.07519H74.9683ZM86.1743 14.1943C85.6519 14.8291 84.9292 15.1465 84.0063 15.1465C83.1567 15.1465 82.5073 14.9023 82.0581 14.4141C81.6138 13.9258 81.3867 13.2104 81.377 12.2681V7.07519H83.4937V12.1948C83.4937 13.02 83.8696 13.4326 84.6216 13.4326C85.3394 13.4326 85.8325 13.1836 86.1011 12.6855V7.07519H88.2251V15H86.2329L86.1743 14.1943ZM94.1138 12.81C94.1138 12.5513 93.9844 12.3486 93.7256 12.2021C93.4717 12.0508 93.0615 11.9165 92.4951 11.7993C90.6104 11.4038 89.668 10.603 89.668 9.39696C89.668 8.69384 89.9585 8.1079 90.5396 7.63915C91.1255 7.16552 91.8896 6.9287 92.832 6.9287C93.8379 6.9287 94.6411 7.16552 95.2417 7.63915C95.8472 8.11278 96.1499 8.72802 96.1499 9.48485H94.0332C94.0332 9.18212 93.9355 8.9331 93.7402 8.73778C93.5449 8.53759 93.2397 8.43749 92.8247 8.43749C92.4683 8.43749 92.1924 8.51806 91.9971 8.67919C91.8018 8.84032 91.7041 9.0454 91.7041 9.29442C91.7041 9.5288 91.814 9.71923 92.0337 9.86571C92.2583 10.0073 92.6343 10.1318 93.1616 10.2392C93.689 10.3418 94.1333 10.459 94.4946 10.5908C95.6128 11.001 96.1719 11.7114 96.1719 12.7222C96.1719 13.4448 95.8618 14.0308 95.2417 14.48C94.6216 14.9243 93.8208 15.1465 92.8394 15.1465C92.1753 15.1465 91.5845 15.0293 91.0669 14.7949C90.5542 14.5557 90.1514 14.2309 89.8584 13.8208C89.5654 13.4058 89.4189 12.959 89.4189 12.4805H91.4258C91.4453 12.8564 91.5845 13.1445 91.8433 13.3447C92.1021 13.5449 92.4487 13.645 92.8833 13.645C93.2886 13.645 93.5938 13.5693 93.7988 13.418C94.0088 13.2617 94.1138 13.0591 94.1138 12.81Z" fill="black"/>
<line x1="18" y1="0.49999" x2="97" y2="0.49999" stroke="#0094FF"/>
<line x1="18" y1="18.5" x2="97" y2="18.5" stroke="#0094FF"/>
<path d="M3.63081 10.5076L3.65567 10.7814L3.31617 10.7816C2.99111 10.7797 2.6707 10.8098 2.35258 10.8558C2.3092 10.8621 2.2803 10.8663 2.23921 10.8886C2.08014 10.9116 1.53762 11.0391 1.38028 11.1761C1.51448 11.2872 1.87479 11.4308 1.99742 11.462C4.22712 11.8735 6.04442 11.5778 7.82471 11.0264L7.85365 11.0222L7.86808 11.0201L7.89702 11.0159L7.92362 10.9958L7.93805 10.9937L7.95252 10.9916L7.96699 10.9895L7.9959 10.9853L8.03695 10.963L8.06586 10.9588L8.10692 10.9366L8.13583 10.9324L8.16473 10.9282L8.17689 10.9101L8.20579 10.906L8.23469 10.9018L8.27575 10.8795L8.30466 10.8753L8.31913 10.8732L8.34803 10.869L8.37466 10.8489L8.38909 10.8468L8.418 10.8426L8.44462 10.8224L8.47353 10.8183L8.48796 10.8162L8.5169 10.812L8.54349 10.7918L8.55796 10.7897L8.58686 10.7855L8.6013 10.7834L8.61346 10.7654L8.62793 10.7633L8.65683 10.7591L8.68574 10.7549L8.71233 10.7347L8.7268 10.7327L8.7557 10.7285L8.78229 10.7083L8.79676 10.7062L8.81123 10.7041L8.82567 10.7021L8.85229 10.6819L8.8812 10.6777L8.89563 10.6756L8.92226 10.6554L8.95116 10.6512L8.96559 10.6491L8.99453 10.6449L9.02113 10.6248L9.0356 10.6227L9.0645 10.6185L9.09109 10.5984L9.12 10.5942L9.13446 10.5921L9.16106 10.5719L9.18996 10.5678L9.20443 10.5657L9.23102 10.5455L9.24549 10.5434L9.25993 10.5413L9.28887 10.5371L9.30098 10.519L9.27208 10.5232L9.18533 10.5358L9.09858 10.5483L9.01184 10.5609L8.94184 10.5873L8.85509 10.5999L8.76834 10.6125L8.68159 10.625L8.59485 10.6376L8.5081 10.6501L8.43578 10.6606L8.34903 10.6732L8.26229 10.6857L8.17554 10.6983L8.08879 10.7108L8.00204 10.7234L7.92973 10.7339L7.84298 10.7464L7.75623 10.759L7.66948 10.7715L7.58273 10.7841L7.49617 10.7966L7.42386 10.8071L7.33711 10.8196L7.25036 10.8322L7.1613 10.8288L7.07455 10.8413L7.00223 10.8518L6.91549 10.8644L6.82874 10.8769L6.74199 10.8895L6.65293 10.8861L6.56618 10.8986L6.49387 10.9091L6.40481 10.9057L6.31806 10.9182L6.23131 10.9308L6.14456 10.9433L6.0555 10.9399L5.98318 10.9504L5.89413 10.947L5.80738 10.9595L5.72063 10.9721L5.63157 10.9687L5.55929 10.9791L5.47023 10.9757L5.38348 10.9883L5.29442 10.9848L5.20767 10.9974L5.11861 10.994L5.04629 11.0044L4.95724 11.001L4.87049 11.0136L4.78142 11.0102L4.69468 11.0227L4.62008 11.0172L4.53103 11.0138L4.44428 11.0264L4.35521 11.0229L4.26616 11.0195L4.19384 11.03L4.10478 11.0266L4.01572 11.0231L3.92666 11.0197L3.9174 10.9558L3.91509 10.9398L3.91278 10.9238L3.91046 10.9078L3.90815 10.8919L3.90584 10.8759L3.92027 10.8738L3.91796 10.8579L3.91565 10.8419L3.91333 10.8259L3.91102 10.8099L3.90871 10.7939L3.9064 10.778L3.90408 10.762L3.90177 10.746L3.89946 10.73L3.89714 10.714L3.89483 10.698L3.89252 10.6821L3.8902 10.6661L3.8879 10.6501L3.88558 10.6342L3.90005 10.6321L3.89774 10.6161L3.89543 10.6001L3.89311 10.5841L3.8908 10.5681L3.88849 10.5522L3.88617 10.5362L3.88386 10.5202L3.88155 10.5042C3.84512 10.1505 3.82313 9.79477 3.7867 9.44106C6.56587 9.36511 9.31088 8.95142 11.9998 8.25213C12.0721 8.64959 12.1589 9.04495 12.2312 9.44241L12.4701 9.35889C11.8732 6.45931 11.4614 3.61454 11.4608 0.85712C9.31785 0.0251573 4.01862 0.743331 2.19211 2.19885C2.96622 4.79503 3.3734 7.60785 3.63081 10.5076ZM8.87972 0.773555C9.26263 0.76711 9.63566 0.79467 10.0087 0.822226C10.1336 3.31693 10.4465 5.78442 10.9208 8.24487C10.564 8.32919 10.2048 8.39747 9.86009 8.4637C9.38867 5.92127 9.04745 3.35995 8.87972 0.773555Z" fill="#141515"/>
<path d="M14.4577 9.93561C14.2148 9.88917 13.8452 10.0895 13.6087 10.1891C12.3871 10.7249 11.1748 11.3246 9.91736 11.8167L9.83292 11.8452C11.5236 11.7962 14.4068 11.6236 14.9679 10.4002L14.8557 10.237C14.7603 10.0876 14.6382 9.95843 14.4577 9.93561Z" fill="#141515"/>
<path d="M12.748 9.54676C9.05902 10.7824 6.2243 12.5144 1.95004 11.7462C0.351931 11.2107 1.36122 10.7382 2.31328 10.5841C2.63141 10.538 2.9686 10.5219 3.29135 10.5078C2.63259 10.3421 1.09867 10.352 0.735432 11.1062C0.0384512 12.5124 2.47407 12.7146 4.54068 12.6113C8.71722 12.3983 10.2477 11.3446 13.5138 9.94171C14.0691 9.69813 14.5983 9.3768 15.0541 10.0777C15.0506 9.03399 13.9325 9.16318 12.748 9.54676Z" fill="#141515"/>
<path d="M7.99998 17.5547C6.45729 15.8266 5.46459 18.8203 4.0024 17.3965C3.9085 19.1489 6.59146 19.5262 7.99998 18.224C9.40854 19.5262 12.0915 19.1489 11.9976 17.3965C10.5354 18.8203 9.54271 15.8266 7.99998 17.5547Z" fill="#141515"/>
</svg>
